<svg width="338" height="316" viewBox="0 0 338 316" fill="none" xmlns="http://www.w3.org/2000/svg">
<path d="M291.303 303.974V12H326V303.974H291.303Z" fill="black"/>
<path fill-rule="evenodd" clip-rule="evenodd" d="M279.303 315.974V0H338V315.974H279.303ZM291.303 303.974H326V12H291.303V303.974Z" fill="white"/>
<path fill-rule="evenodd" clip-rule="evenodd" d="M12 12V303.974H46.0318V111.834H45.9895V68.8695H46.0318V12H12ZM80.0214 71.9105V109.351H150.786V303.974H186.081V12H150.786V71.9105H80.0214Z" fill="black"/>
<path fill-rule="evenodd" clip-rule="evenodd" d="M0 315.974V0H58.0318V80.8695H57.9895V99.8337H58.0318V315.974H0ZM46.0318 68.8695H45.9895V111.834H46.0318V303.974H12V12H46.0318V68.8695ZM68.0214 59.9105H138.786V0H198.081V315.974H138.786V121.351H68.0214V59.9105ZM150.786 109.351V303.974H186.081V12H150.786V71.9105H80.0214V109.351H150.786Z" fill="white"/>
</svg>
