<svg width="1440" height="685" viewBox="0 0 1440 685" fill="none" xmlns="http://www.w3.org/2000/svg">
<g clip-path="url(#clip0)">
<path d="M443.954 906.465L291.932 146.022L198.457 115.444L190.482 75.5518L322.12 116.651L325.11 131.611L333.085 171.503L478.626 899.534L443.954 906.465Z" fill="black"/>
<path d="M1408.61 713.62L1363.25 486.733L1286.96 501.985L1279.98 467.079L1356.27 451.828L1263.57 -11.9177L1201.74 -15.1147L1175.81 -54.0111L1255.59 -51.8098L1212.73 -266.23L1247.4 -273.161L1443.28 706.688L1408.61 713.62Z" fill="black"/>
<path fill-rule="evenodd" clip-rule="evenodd" d="M538.786 669.704L580.654 879.137L613.733 872.524L562.893 618.212L555.915 583.307L500.183 304.523L500.158 304.528L484.116 224.283L484.141 224.278L417.85 -107.325L384.771 -100.712L531.808 634.798L460.697 649.014L482.634 680.929L538.786 669.704ZM523.767 245.711L533.103 292.41L616.757 338.246L719.345 851.411L754.615 844.36L741.158 777.042L862.103 672.484L855.125 637.579L824.207 664.503L733.681 739.644L558.732 -135.489L523.462 -128.438L607.29 290.887L523.767 245.711Z" fill="black"/>
<path fill-rule="evenodd" clip-rule="evenodd" d="M1018.03 195.573L936.741 -211.057L971.015 -217.909L1044.28 148.6L1141.22 90.3267L1075.43 -238.783L1110.7 -245.834L1176.99 85.769L1180.98 105.715L1051.11 188.96L1051.14 188.966L1051.13 188.967L1059.31 229.889L1059.29 229.884L1095.92 413.124L1111.13 489.183L1192.48 431.434L1199.83 468.202L1119.1 529.075L1165.7 762.179L1132.62 768.792L1062.84 419.736L1018.03 195.573ZM1096.31 238.044L1174.19 255.21L1271.31 741.066L1306.58 734.015L1204.95 225.592L1088.27 197.808L1096.31 238.044Z" fill="black"/>
<path fill-rule="evenodd" clip-rule="evenodd" d="M-27.9155 -18.2115L167.969 961.637L201.978 954.839L146.65 678.088L227.331 661.959L208.386 632.038L140.17 645.675L92.381 406.622L92.3368 406.631L83.7311 363.583L83.7753 363.574L6.09291 -25.0102L-27.9155 -18.2115ZM118.348 359.83L125.848 397.344L196.566 383.206L306.66 933.911L341.93 926.86L170.969 71.6741L303.18 16.7217L283.741 -80.5153L251.329 -74.0357L265.285 -4.22454L163.991 36.7685L146.047 -52.9887L110.775 -45.9374L189.066 345.693L118.348 359.83Z" fill="black"/>
<path fill-rule="evenodd" clip-rule="evenodd" d="M828.249 679.252L686.656 -23.6388L621.815 -10.6764L615.336 -43.0887L680.176 -56.0511L660.239 -155.781L694.766 -162.684L759.627 161.766L759.625 161.766L770.55 216.411L770.578 216.406L813.117 426.642L882.774 412.717L889.714 447.433L819.539 461.461L862.258 672.453L828.249 679.252ZM924.619 440.455L924.74 440.431L980.876 723.934L838.716 731.611L845.694 766.516L988.871 761.23L995.331 796.239L1030.08 789.291L862.611 -48.4425L943.449 -113.868L935.474 -153.76L854.137 -90.8279L834.2 -190.558L799.448 -183.611L865.739 147.992L795.064 162.121L802.292 198.276L872.967 184.147L917.8 405.715L917.679 405.739L924.619 440.455Z" fill="black"/>
<g clip-path="url(#clip1)">
<g style="mix-blend-mode:lighten">
<path d="M372.804 550.77L314.322 258.228L348.994 251.297L407.477 543.839L372.804 550.77Z" fill="#FFB800"/>
<path d="M1337.46 357.925L1278.98 65.3826L1313.65 58.4511L1372.13 350.993L1337.46 357.925Z" fill="#FFB800"/>
<path fill-rule="evenodd" clip-rule="evenodd" d="M451.023 230.9L509.505 523.442L542.584 516.829L500.143 304.532L500.118 304.537L484.076 224.292L484.101 224.287L451.023 230.9ZM523.727 245.72L533.063 292.419L616.718 338.255L648.196 495.716L683.467 488.665L624.984 196.123L589.714 203.174L607.25 290.897L523.727 245.72Z" fill="#FFB800"/>
<path fill-rule="evenodd" clip-rule="evenodd" d="M1002.99 120.555L1017.99 195.582L1061.47 413.097L1094.55 406.484L1059.25 229.894L1059.27 229.898L1051.09 188.977L1051.09 188.976L1051.07 188.97L1180.99 105.977L1176.95 85.7785L1140.97 90.4346L1044.24 148.586L1037.27 113.703L1002.99 120.555ZM1088.23 197.818L1096.27 238.053L1174.15 255.22L1200.16 385.371L1235.44 378.32L1204.91 225.602L1088.23 197.818Z" fill="#FFB800"/>
<path fill-rule="evenodd" clip-rule="evenodd" d="M38.3359 313.401L96.8183 605.943L130.827 599.144L92.3413 406.631L92.2968 406.64L83.6911 363.592L83.7355 363.583L72.3444 306.602L38.3359 313.401ZM118.308 359.84L125.808 397.353L196.526 383.216L235.509 578.217L270.779 571.166L212.297 278.624L177.027 285.675L189.027 345.702L118.308 359.84Z" fill="#FFB800"/>
<path fill-rule="evenodd" clip-rule="evenodd" d="M727.009 175.727L761.016 168.929L770.51 216.421L770.538 216.415L813.077 426.651L883.794 412.514L890.734 447.23L785.491 468.269L727.009 175.727ZM924.743 440.431L959.452 433.493L900.97 140.951L865.699 148.002L795.024 162.13L802.252 198.285L872.927 184.156L915.484 394.478L915.553 394.464L924.743 440.431Z" fill="#FFB800"/>
</g>
</g>
</g>
<defs>
<clipPath id="clip0">
<rect width="1440" height="685" fill="white"/>
</clipPath>
<clipPath id="clip1">
<rect x="-36.4556" y="250.566" width="1449.28" height="447.496" transform="rotate(-11.305 -36.4556 250.566)" fill="white"/>
</clipPath>
</defs>
</svg>
