<svg width="310" height="129" viewBox="0 0 310 129" fill="none" xmlns="http://www.w3.org/2000/svg">
<path d="M0 69.176V0L14.3853 10.3623V55.4771L58.665 63.1607V10.3623L73.5841 0V129H58.665V79.7027L14.3853 72.0191L0 69.176Z" fill="black"/>
<path d="M235.919 69.176V0L250.304 10.3623V55.4771L294.584 63.1607V10.3623L309.503 0V129H294.584V79.7027L250.304 72.0191L235.919 69.176Z" fill="black"/>
<path fill-rule="evenodd" clip-rule="evenodd" d="M132.344 0H132.345V15.9429H132.344L132.345 16.1505V20.942H132.355L132.563 113.692H162.475V129H117.959V0H132.344ZM176.86 129H191.543V0H176.624H146.73V15.9429H176.624L176.832 108.73H176.86V129Z" fill="black"/>
</svg>
