<svg width="130" height="40" viewBox="0 0 130 40" fill="none" xmlns="http://www.w3.org/2000/svg">
<path d="M31.9172 33.3334V6.66675H35.0889V33.3334H31.9172Z" fill="white"/>
<path d="M120.159 33.3334V6.66675H123.331V33.3334H120.159Z" fill="white"/>
<path fill-rule="evenodd" clip-rule="evenodd" d="M44.4216 6.66675V33.3334H47.4475V13.9815H47.4451V6.66675H44.4216ZM50.556 9.23969V13.4965L57.1083 18.98V33.3334H60.3347V6.66675H57.1083V14.6631L50.556 9.23969Z" fill="white"/>
<path fill-rule="evenodd" clip-rule="evenodd" d="M94.9133 6.66675V13.5058V33.3334H97.9392V17.2363L97.9412 17.2372V13.5069H97.9415L97.9392 13.5058L110.826 8.22109V6.66675H107.6L98.0485 10.3972V6.66675H94.9133ZM101.052 14.9326V18.6003L107.6 21.4694V33.3334H110.826V19.4123L101.052 14.9326Z" fill="white"/>
<path fill-rule="evenodd" clip-rule="evenodd" d="M6.67139 6.66675V33.3334H9.7823V15.7849H9.77831V11.8609H9.7823V6.66675H6.67139ZM12.8892 12.1385V15.5581H19.3581V33.3334H22.5845V6.66675H19.3581V12.1385H12.8892Z" fill="white"/>
<path fill-rule="evenodd" clip-rule="evenodd" d="M72.7784 6.66675H72.7785V9.96244H72.7784L72.7785 9.98846V10.9959H72.7808L72.8258 30.1689H79.294V33.3334H69.6675V6.66675H72.7784ZM82.405 33.3334H85.5805V6.66675H82.3542H75.8894V9.96244H82.3542L82.3992 29.1432H82.405V33.3334Z" fill="white"/>
</svg>
