<svg width="195" height="60" viewBox="0 0 195 60" fill="none" xmlns="http://www.w3.org/2000/svg">
<path d="M47.8416 50V10H52.5957V50H47.8416Z" fill="black"/>
<path d="M180.109 50V10H184.863V50H180.109Z" fill="black"/>
<path fill-rule="evenodd" clip-rule="evenodd" d="M66.5847 10V50H71.1202V20.9721H71.1167V10H66.5847ZM75.7798 13.8595V20.2447L85.6011 28.4699V50H90.4372V10H85.6011V21.9945L75.7798 13.8595Z" fill="black"/>
<path fill-rule="evenodd" clip-rule="evenodd" d="M142.268 10V20.2587V50H146.803V25.8543L146.806 25.8556V20.2602H146.807L146.803 20.2587L166.12 12.3315V10H161.284L146.967 15.5956V10H142.268ZM151.469 22.3988V27.9003L161.284 32.204V50H166.12V29.1184L151.469 22.3988Z" fill="black"/>
<path fill-rule="evenodd" clip-rule="evenodd" d="M10 10V50H14.663V23.6772H14.6571V17.7912H14.663V10H10ZM19.3201 18.2077V23.337H29.0164V50H33.8525V10H29.0164V18.2077H19.3201Z" fill="black"/>
<path fill-rule="evenodd" clip-rule="evenodd" d="M109.089 10H109.089V14.9435H109.089L109.089 14.9769V16.4938H109.093L109.16 45.2532H118.856V50H104.426V10H109.089ZM123.519 50H128.279V10H123.443H113.752V14.9435H123.443L123.51 43.7147H123.519V50Z" fill="black"/>
</svg>
